<svg fill="none" xmlns="http://www.w3.org/2000/svg" viewBox="0 0 370 581"><path d="M120.9 1.6c-2.9.8-6.9 3.4-10.7 6.8l-6 5.4 7.2.4c4.6.3 8.9 1.3 12.1 2.9 7.3 3.5 18.4 14.6 26.7 26.7 7.1 10.7 7.2 10.7 2.7 6.6-7.3-6.7-13.2-9.6-20.2-10.1-6.4-.5-7.1-.3-20.2 7-1.6.9-4.6 1.9-6.6 2.2-7.3 1.1-31 18.5-43.4 31.7-8.5 9.2-19.7 25.2-25.2 36.2-1.9 3.9-3.6 7.2-3.8 7.4-.1.1-1.8-.5-3.8-1.3-7.3-3-12.9-1.5-18.7 5.2-9.7 11-13.6 32.9-9 50.7 2.6 10.3 7.2 18.7 14.6 26.6 4.4 4.7 6.6 8 7.9 12 5.3 15.9 14 29.7 25.6 40.2 10.8 9.8 11.3 10 8.3 3.2-5.6-12.6-10-34.5-9.2-45.3l.3-4.4 5.9 11.9C65.5 244.1 77.2 256.1 97 266c3.6 1.8 6.7 3.4 6.8 3.5.2.2-1.9 3.3-4.7 7C89.7 289 80.2 311 76 330c-1.8 8.3-1.2 10.4 3 10.8l3.5.3v16.2c0 8.9.6 20.2 1.4 25.2 2.7 18.3 9.1 34.8 15.3 40 2.6 2.2 2.8 2.9 2.8 9.7.1 21.6 13.5 80 22.5 97.8 1.3 2.5 2.9 7.5 3.6 11 .6 3.6 1.6 7.2 2 8.2.7 1.3-.9 2.7-8.8 7.4C108.9 564 104 568.3 104 572c0 3.4 2.4 5.6 8.4 7.6 4.2 1.4 6.6 1.5 21.3.4 9.2-.7 17.5-1.7 18.5-2.3 1-.7 2.6-3.1 3.5-5.5 1.4-3.8 1.5-5.1.3-10.5-1.7-8.1-1.6-20.5.4-46.7 3.2-42.5 7.7-63.2 14.2-65.7 3.9-1.5 11.9 12.2 14.7 25.2 3.1 14.2 6.1 55.6 5 68.2-.5 5.3-.3 6.4 1.1 6.9 1.6.6 1.7 1.7 1.1 9.9-.6 7.7-.4 9.8 1 12.9 1 2 2.5 4 3.4 4.5.9.5 10.4 1 21.1 1.2l19.5.4.3-3.9c.7-7.8-8.5-20.4-18.3-25-3.2-1.5-3.5-2.1-3.5-5.7 0-2.4 1.4-7.2 3.4-11.7C230 507.9 247 445.6 247 430.9c0-3.1 1.7-4.8 2.2-2.3.3 1.3.8 1.2 3.8-.8 5.2-3.5 12.1-18.5 15.5-33.9 2-9 3-36.1 1.7-44.4-.9-5.4-.8-6.1 1-7.3 1.6-1.2 1.8-2.1 1.3-6-2.2-16.6-17.5-48.3-29.5-60.9-3.3-3.6-3.6-4.3-1.6-4.3 2.4 0 22.9-10.7 29.6-15.4l6.5-4.5 1.7 3.2c1.6 3.1 1.5 3.4-.5 6.7-1.1 1.9-3.6 5.2-5.4 7.3-1.8 2-3.3 3.9-3.3 4.2 0 .8 3.6-1.2 8.7-4.6 2.3-1.6 4.4-2.9 4.7-2.9 1 0 .7 18-.4 26.9-1.2 9.1-5.1 22.8-8.1 27.8-1.8 3.2-1.8 3.3 0 3.3 3.9 0 16.1-7.2 23-13.6 20.2-18.7 30-46.5 30.1-85.2 0-7.2.4-13.2.8-13.2.8 0 3.3 6.5 5.3 14 .7 2.5 1.5 11.2 1.8 19.5l.6 15 3.5-5c4.4-6.4 10.4-20.2 13.2-30.8 3.3-11.8 3.2-34.9 0-49.4-5.8-25.9-19.9-58.4-32.9-75.7-2.5-3.2-3.8-5.5-3.1-5 4 2.3 14.3 11.2 20.9 18.1 9.6 9.9 14.5 16.6 23.8 32.6 4.1 7 7.5 12.6 7.6 12.4.1-.1-.1-6.7-.5-14.7-.9-16.6-2.5-22.8-9.4-36.2-13.9-26.9-36-54.9-54.1-68.5-12.6-9.5-30.9-16.9-49.3-19.9-12.9-2.1-32.5-1.4-43.7 1.6-13.4 3.6-20.4 8-29.6 18.4-4.5 5-8.9 10.7-9.9 12.6-1 1.9-2.9 4.5-4.2 5.8l-2.4 2.2-.1-9.2c-.1-11-3.1-21.7-9-31.7C149.1 3.2 135-2.8 120.9 1.6zm19.8 6.2c6.4 3.3 10.3 8 15 17.9 4.2 8.8 7.3 20.8 7.3 27.6-.1 2.9-.4 2.5-3.6-3.8-7.5-14.7-20.5-28.9-31.1-34.2-3.6-1.7-7.7-2.7-12.4-3.1-6-.4-6.7-.6-5.1-1.8 1-.7 4.5-2.2 7.8-3.4 7.3-2.5 16.1-2.2 22.1.8zM248 21c24.2 2.8 44.6 11.7 62.4 27.4 13.8 12.2 35.4 41.4 44.9 60.8 4 8 11.3 29.5 10.4 30.4-.2.2-2-2.5-4-6-4.9-8.5-14.4-20.3-22-27.1-7-6.3-20.9-15.9-24.7-17-1.4-.4-4-1.6-5.8-2.7-5.2-3.2-4.9-1.4.9 5.1 7.5 8.3 15 20.6 22.5 37.1 13.3 29.3 18.6 49.2 18.7 70.5 0 14.9-1.6 23.1-7.1 37l-3.6 9-1.3-9c-1.6-11-3.7-18.7-6.7-24.1l-2.3-4.1 3.7-6.2c7.8-12.9 10.6-27.8 7.6-40.4-3.9-16.8-15.5-30.7-25.4-30.7-2.8 0-3.2-.5-6.2-8.3-12.8-32.5-35.3-57.5-64.3-71.2-5.4-2.6-8.2-4.7-9.7-7-3.1-5.1-10.6-11.4-16.8-14.3-4.4-2-7.3-2.6-12.9-2.7-6.4 0-6.9-.1-4.8-1.3 3.1-1.6 12.5-4 20.1-5.1 8.3-1.2 16.5-1.2 26.4-.1zm-31.2 13.5c14.7 6.7 27.3 31.4 27.1 53l-.1 7-2.2-7.2c-3-9.3-6.6-15.4-13.5-22.7-13.7-14.5-30.3-20.3-46.1-16.2-3 .8-5.6 1.3-5.7 1.2-.2-.1 2-2.8 4.7-5.8 11.1-12.4 22.4-15.4 35.8-9.3zm-76.3 12.4c3.3 1.5 7 4 8.3 5.3l2.3 2.6-5.3.6C134 56.9 123 65.1 113 80c-8.2 12.2-11.7 19.7-14.5 30.8l-2.4 9.7V110c-.2-33.9 8.8-55 27.2-63.6 6.7-3.1 9.9-3 17.2.5zm-36.9 10.5c-2.4 3.5-5.4 9-6.5 12.2-2.2 5.8-5.1 18-5.1 21.4 0 1.1-3.1 8.4-6.9 16.2-8.3 17.3-10.3 22.6-14.1 37.7-4.3 17.2-5.4 26.5-4.7 41.5.6 14.2 1.9 20.4 7.2 33.6 3.2 8 3.2 8.3.9 5.5-11.6-14-15-20.2-18.5-33.1-3.1-11.3-3.1-31.9-.1-46.1 2.7-12.6 7-25.8 11.3-34.9 1.8-3.8 3.5-7.4 3.7-7.9.3-.6-.9.2-2.5 1.8-9.6 9-20.3 41.2-20.3 61.2 0 3.9-.7 11.6-1.5 17.1-2.9 19.5-1.4 53 3 65.5 2.5 7 .5 5.1-8.2-8C22.5 213 19.6 179 32.6 140 43.8 106.4 65.5 77.8 94 59.2c6.8-4.5 12.8-8.2 13.2-8.2.4 0-1.2 2.9-3.6 6.4zm103.7-2.5c4.4 2.1 9.3 5.6 13.5 9.7 5 4.9 5.9 6.2 3.7 5.1-5.6-2.7-16-5.6-24.9-7.2-9.5-1.6-30.1-2.1-31-.7-.3.5 4.3 1.2 10.2 1.5 13 .8 24.9 3.2 40.4 8.2l11.7 3.8 4 7.6c2.1 4.2 4.9 10.9 6 14.8 1.2 4 2.5 7.3 3 7.3 1.2 0 5.1-12.1 5.1-16l.1-3.5 2.4 3c6.2 7.5 19.2 41.1 24.1 62.2 2.4 10 2.8 14 2.8 26.3 0 13.7-.2 15.3-3.7 28.4-2.1 7.6-4.6 15.6-5.7 17.9-2.5 5.1-2.5 5 .8 3.3 7.2-3.8 14.4-11.3 20.4-21.4 3.4-5.7 4.1-3.7 3.3 8.3-.8 10.9-3.2 16.5-10.7 24.9-15 16.9-44.8 31.4-75.1 36.6-33 5.6-60 3.9-88.4-5.5-24.8-8.3-46.3-23.7-56.5-40.6-5.3-8.7-13.8-31.8-13.8-37.1.1-1.3 1.3 1.5 2.9 6.2 4.6 14.3 11.4 23.7 22.2 31.1 6.3 4.2 6.7 4.1 4.4-1.3-4.1-10-7.9-40.2-6.8-54.5l.6-8.1 3.1 4.6c6.2 9.1 19.4 13.8 36.6 12.9 17.4-.8 30.9-6.2 39.3-15.6 4.9-5.4 6.7-9.7 6.7-15.9 0-11.3-6.4-20.8-17.8-26.4-6.2-3.1-7.4-3.3-16.2-3.2-7.1 0-11.1.6-16 2.3-9.3 3.2-19.6 9.6-26.1 16.1l-5.7 5.6 1.9-6.5c2-7.4 6.6-20.8 10.1-29.3l2.4-5.7 1.1 7.3c.7 4.1 1.8 8.8 2.5 10.6l1.3 3.2 2.9-7.3c5-13 13.5-29.1 19.6-37.5l6-8.2 7.7-2c9.1-2.5 25.7-6.1 30.5-6.7 2.1-.3 4.2-1.5 5.8-3.5 1.4-1.6 2.9-3 3.4-3s1.7-.6 2.5-1.4c3.1-2.8 11.3-4.6 19.1-4.3 6 .3 8.9 1 14.3 3.6zm51.2 8c21.1 14.9 37.8 37.3 47.9 64.3 6.6 17.7 8.7 28.4 9.3 46.6.8 23.8-2 37.9-11.2 56.2-4.1 8.2-13.2 21.6-14 20.8-.3-.2.4-2.7 1.4-5.4 4.6-11.9 6.8-31.3 5.2-44.3-1-7.5-.9-9.2 1.1-16.5 3-10.9 3.3-37.6.5-50.6-2-9.3-6.4-25-7.2-25.8-1.8-1.8-1.5 2.7 1.1 16.1 2.5 13.4 2.9 17.3 2.8 32.7 0 19.8-1.5 27.3-8 41-2.9 6.1-12.9 21-14.1 21-.2 0 .8-2.2 2.2-4.9 5.7-11.3 8.6-29.8 7.3-46.3-.8-10.7-5.5-30.4-10.4-43.5-5.4-14.8-15.1-33.8-19.4-38.4-3-3.2-3.9-5-4.4-9.2-.6-4.5-4.4-17-7.1-23.2-.8-1.7-.2-1.5 4.1.9 2.7 1.6 8.5 5.4 12.9 8.5zm-99.5-3c2.9.6 2 .9-7 2.5-5.8 1-12.9 2.5-15.9 3.2-3 .8-5.6 1.3-5.8 1.1-1-1.1 10.2-6.9 14.4-7.6 4.6-.8 6.8-.6 14.3.8zm-128.2 67c1.1.6.5 3.3-2.7 12.7-5.9 17.5-8.3 30.5-8.2 45.4 0 6.9.4 14.7 1 17.5.5 2.7.8 5.1.7 5.2-.5.6-11.3-17.8-13.2-22.6-7.4-18.5-3.5-45.8 8.1-55.9 2.9-2.6 4.4-3.2 8.3-3.2 2.6 0 5.3.4 6 .9zm106.8 2.5c9.6 4.4 14.3 10.2 15.9 19.4.6 3.5.2 5.2-1.9 9.6-1.5 3-4.1 6.5-5.9 7.9-3.4 2.6-13.7 8-14.2 7.5-.2-.2.4-3 1.2-6.3 3.4-12.8-2.3-34-10.3-38.7-1.9-1.1-3.4-2.2-3.4-2.5 0-1.5 13.4.7 18.6 3.1zm-16.1 4.9c4.5 4.5 7 12.8 7 23.7 0 10-2.4 17.5-5.9 18.4-5.6 1.3-14.5 1.7-16.3.7-3.2-1.6-8.1-9.8-8.8-14.5-1.4-9.3 4.4-26.3 10.2-29.8 4.7-2.9 10-2.3 13.8 1.5zm-22.9 1.4c-3.5 5.5-6.6 16.5-6.6 23.8 0 5 .6 7.4 3 11.9l2.9 5.6-2.7-.6c-5.5-1.2-13.7-6-15.9-9.3-4.4-6.5-1.7-17.5 5.9-24.8 3.4-3.3 13.7-10.3 15-10.3.5 0-.3 1.7-1.6 3.7zm224.1 1.9c4.1 3.1 10.7 14.2 12.8 21.6 1.9 6.7 2.1 17.5.4 24.3-2.2 9.1-11.7 25.5-17.9 31l-2.3 2 .6-2c2.8-9 3.9-17 4.4-30 .6-16.6-.5-27.5-4.1-41.6l-2.4-9.1 2.7.7c1.4.4 4.1 1.8 5.8 3.1zm.8 92c-3.6 32-8.9 49.4-20 64.9-5.4 7.5-17 18.5-19.5 18.5-.4 0 .1-2.5 1.1-5.5 2.6-7.9 4.3-25.3 3.5-36.4l-.7-9.4 7.4-7.6 1.9 2.5c2.6 3.2 6.8 3.1 10.7-.1 4.3-3.7 5.5-8.3 5.4-21.6l-.1-11.6 3.7-2.1c2-1.2 4.5-3 5.6-4.2 1-1.1 2-1.8 2.2-1.6.2.2-.3 6.6-1.2 14.2zM310 245.7c-1.3 5.9-4.5 10.3-7.7 10.3-2.8 0-6.7-3-5.4-4.3.6-.6 1.5-.4 2.6.7 4.6 4.5 9-1.7 8.4-11.8-.2-2.4.4-5.8 1.2-7.7l1.4-3.4.3 5.3c.2 3-.2 7.9-.8 10.9zm-24.1 1.9c-2.9 7-3.3 7.5-4.6 5.9-.7-1.1-1.3-2.5-1.3-3.2 0-1.6 8.4-12.2 8.8-11.2.2.4-1.1 4.2-2.9 8.5zm19.1-.7c-.6 2.5-1.7 4.1-2.6 4.1-2.7 0-2.6-2.6.3-7.2 3.2-5.2 4.2-3.8 2.3 3.1zM125.5 277c19 5.1 29.9 6.4 51.5 6.3 10.7-.1 21.8-.6 24.5-1.2 9.7-2 21.5-4.9 28.5-7 8.4-2.6 6.7-3.6 16.1 10.3 6.1 9.1 10.9 18.5 16 31.3 3.2 7.9 6.6 19.9 5.9 20.6-.3.3-8.8.6-19 .8l-18.4.4-.8-3.8c-1-4.9-5-12.6-5.6-10.8-.5 1.6 1.8 15.9 3 18.3.5 1 1.7 1.8 2.7 1.8 1.4 0 2 1.4 3 8.2 2.2 14 3.2 31.9 2.5 43.1l-.7 10.7-3.4-2c-8.7-5.1-25.3-7.8-53.8-8.7-19.7-.6-52.3 1-55.5 2.7-1.6.9-1.9.4-2.5-4.1-.7-4.9.2-41.9 1.1-45 .3-1.1 1.2-1.5 2.3-1.2 1.2.3 2.3-.2 2.9-1.4 1.2-2.3 4.8-16.5 5.6-21.8l.6-4-2.9 5.5c-1.6 3-3.7 8.3-4.7 11.7-.9 3.5-2 6.3-2.4 6.3-.3 0-6.4-1.2-13.6-2.6-7.1-1.4-16.6-2.8-21.1-3.1-6.3-.4-8.3-.9-8.3-2 0-2.6 3.9-17 7.1-26 3.5-9.9 8.2-19.7 14.2-29.3 6.4-10.3 6.3-10.2 10.6-8.4 2 .8 8.5 2.8 14.6 4.4zM105 344.4l12.5 2.2-.5 6c-.3 3.2-.5 18-.4 32.9.1 24.9.3 27.5 2.2 33l2.2 6-.6-11.6-.5-11.6 6.3-.6c3.5-.4 15.5-.9 26.8-1.3 34.4-1.1 65.7 2.1 77.4 7.8l4.8 2.3-.7 9.2c-.8 10.7 0 11.6 5.5 6 3.5-3.4 3.5-3.4 1.1 4.2-.9 3.1-.9 3.3 1 2.8 1.8-.5 1.9-.2 1.3 3.1-2.8 16.3-12 49.4-20.4 73.2-7.2 20.3-10 30.1-10 34.4v3.1l-7.8.2c-4.2.2-8.6.4-9.7.5-1.9.3-2-.3-2.1-18.7-.2-42.1-5.3-66.9-15.9-77.8-7.5-7.7-14.9-2.7-18.8 12.8-4.2 16.5-6.9 42.5-6.8 66.2l.1 18.3h-18.8l-1.3-5.2c-.6-2.9-3.4-12.3-6.1-20.8-9.5-29.8-19.6-74.4-21.3-93.5l-.6-7 1.9 4.1c2 4.2 3.5 5.7 6.1 6.1 1 .1 1.2-.9.7-5-.6-5.1-.6-5.1 1.1-3.1 1.7 2.1 6.3 5 6.3 4 0-1.1-8.7-13.1-9.6-13.1-.5 0-1.1 2.5-1.4 5.5l-.5 5.5-2.5-6.7c-3.3-8.9-5-9.6-5-2v5.7l-2-3c-3.6-5.4-7.8-16.9-10-27-2.1-10.4-4.9-44.8-3.7-47.8.8-2.2 4.2-2.1 19.7.7zm160.5-1.4c1.4 2.2 1.7 26.8.6 36.9-1.6 13.4-6.5 33.2-9.9 39.3-3 5.7-4.3 6.2-3.2 1.3 1.1-4.8-.6-5.4-3.1-1.1-1.2 2-2.5 3.6-3 3.6s-.9-2.4-.9-5.3l-.1-5.2-4 4.5-4.1 4.5.7-3.5c1.3-6.6 2.1-33.5 1.4-45-.7-10.1-2.9-24.3-4.5-28.5-.5-1.1 1-1.5 6.8-1.8 16.4-.7 22.7-.7 23.3.3zm-44.6 211.4c3.4 2.7 7.6 6.7 9.2 8.9 2.9 4 5.7 11.2 4.7 12.2-.3.3-4.5.1-9.4-.5-4.9-.5-12.8-1-17.6-1-11.3 0-11.8-.6-11.8-14.1 0-11.3-.5-10.9 11-10.6 7.3.2 7.7.4 13.9 5.1zm-69.1 2c.7 3.5 1.2 7.7 1.2 9.3 0 4.4-2 9.3-3.7 9.3-.8 0-8 .5-15.9 1.1-15 1.2-21.9.5-24.5-2.7-1.7-2 .1-3.8 11.1-11 5.2-3.5 11-7.7 12.9-9.3 3.1-2.9 3.9-3.1 10.6-3.1h7.2l1.1 6.4z" fill="#000"/><path d="M211.2 87.5C205 91.1 201 94 201 95.1c0 .5 2.4.9 5.3.9 2.8 0 8.4.9 12.2 2 8.7 2.5 8.5 2.5 8.5-.4 0-3.3-7.7-12.5-10.5-12.6-.5 0-2.9 1.1-5.3 2.5zm8.7 5c1.7 2 3.1 3.7 3.1 3.9 0 .2-2.4-.2-5.2-.9-2.9-.8-6.4-1.5-7.8-1.7-2.5-.4-2.4-.4 1-2.6 4.6-2.9 5.3-2.8 8.9 1.3zm-99.5-3.3c-4 4.6-7.6 9.9-7 10.5.3.4 3.4.2 6.9-.4 3.4-.6 8.8-.9 12-.6 3.1.3 5.7.2 5.6-.3-.1-1.6-12.1-11.4-13.9-11.4-.9 0-2.5 1-3.6 2.2zm6.6 3.3l2.3 2.5h-3.5c-2 0-4.4.3-5.4.7-1.4.5-1.3 0 .6-2.5 1.3-1.8 2.7-3.2 3-3.2.4 0 1.7 1.1 3 2.5zm84.9 30.5c-15.4 2.6-27 14.7-27.1 28.4-.1 13.4 11.5 23.2 32 27.2 24.5 4.7 48.8-2.8 55.3-17.1 3.9-8.6 1.9-15.6-7.2-24.8-7.6-7.6-16-12.2-25.5-13.7-6.8-1.1-20.8-1.1-27.5 0zm3.7 8.2c-6.8 11.7-7.3 31.9-1 38.9 1.6 1.8 1.6 1.9-.4 1.9-8.1 0-21.1-9.2-23-16.3-3-10.7 6-22.8 20.1-27.2 6.7-2.1 7-1.9 4.3 2.7zm19.2-1.2c4.1 2.5 7.9 10.3 9.3 19.1 1.2 7.3.4 13.6-2.3 20.1l-2 4.8h-17.9l-3-6.4c-3.6-7.8-4.5-14.3-2.9-22.1 3-14.8 10.3-20.7 18.8-15.5zm18.9 4.5c6.2 3.7 13.1 11.1 14.4 15.5 1.6 5.4.4 10.4-3.5 14.3-3.5 3.6-10 7-15.3 8.2l-3.3.7 1.5-4.1c3.6-10.4 2.5-24.3-3-35l-2.6-5.2 3.8 1.6c2.1.9 5.7 2.7 8 4zm-73.1 72.2c-1 1.4-3.7 5.8-6.1 9.9l-4.2 7.4-3.7-9c-6-14.5-7.8-12.8-2.6 2.4 3.3 9.8 4.5 11.7 6.6 10.9 2.4-.9 13.5-22.6 12.2-23.9-.2-.1-1.1.9-2.2 2.3z" fill="#000"/></svg>